<?xml version="1.0" encoding="utf-8"?>
<!-- Generator: Adobe Illustrator 15.0.2, SVG Export Plug-In  -->
<!DOCTYPE svg PUBLIC "-//W3C//DTD SVG 1.1//EN" "http://www.w3.org/Graphics/SVG/1.1/DTD/svg11.dtd" [
	<!ENTITY ns_flows "http://ns.adobe.com/Flows/1.0/">
]>
<svg version="1.1"
	 xmlns="http://www.w3.org/2000/svg" xmlns:xlink="http://www.w3.org/1999/xlink" xmlns:a="http://ns.adobe.com/AdobeSVGViewerExtensions/3.0/"
	 x="0px" y="0px" width="31px" height="31px" viewBox="-0.025 -0.024 31 31"
	 overflow="visible" enable-background="new -0.025 -0.024 31 31" xml:space="preserve">
<defs>
</defs>
<path fill="#949296" d="M29.753,3.596L26.7,0.542C26.342,0.182,25.868,0,25.394,0c-0.473,0-0.945,0.182-1.309,0.542l-5.232,5.233
	c-0.72,0.723-0.72,1.893,0,2.616l3.055,3.051c0,0,1.309,2.181-3.488,6.976c-3.104,3.104-5.111,3.651-6.143,3.651
	c-0.561,0-0.834-0.162-0.834-0.162L8.39,18.855c-0.363-0.362-0.834-0.542-1.307-0.542s-0.949,0.18-1.309,0.542l-5.232,5.232
	c-0.723,0.724-0.723,1.894,0,2.616l3.051,3.052c0.717,0.713,2.04,1.194,3.82,1.194c3.648,0,9.212-2.02,15.365-8.173
	C31.936,13.623,31.936,5.774,29.753,3.596z M19.556,7.691c-0.336-0.336-0.336-0.882,0-1.216l5.23-5.233
	c0.162-0.162,0.378-0.251,0.607-0.251c0.23,0,0.445,0.09,0.608,0.251l1.304,1.311l0,0L20.858,9l0,0L19.556,7.691z M1.241,26.003
	c-0.334-0.334-0.334-0.88,0-1.217l5.232-5.229c0.162-0.165,0.379-0.254,0.609-0.254c0.229,0,0.445,0.089,0.607,0.251l1.303,1.313
	h0.002l-6.45,6.446L1.241,26.003z M22.077,22.079c-7.111,7.113-12.627,7.88-14.664,7.88c-1.387,0-2.553-0.339-3.119-0.904
	L3.25,28.01l6.448-6.446l1.045,1.042l0.085,0.087l0.104,0.063c0.119,0.069,0.566,0.305,1.344,0.305c1.324,0,3.586-0.685,6.842-3.941
	c5.086-5.085,3.923-7.713,3.637-8.188l-0.062-0.104l-0.086-0.087l-1.044-1.042l6.448-6.447l1.044,1.042
	c0.815,0.815,1.286,2.996,0.504,6.028C28.88,12.95,27.032,17.124,22.077,22.079z"/>
</svg>
